<svg width="7" height="9" viewBox="0 0 7 9" fill="none" xmlns="http://www.w3.org/2000/svg">
<path d="M0.5 8.5V7.61111C0.5 7.13962 0.710714 6.68743 1.08579 6.35403C1.46086 6.02063 1.96957 5.83333 2.5 5.83333H4.5C5.03043 5.83333 5.53914 6.02063 5.91421 6.35403C6.28929 6.68743 6.5 7.13962 6.5 7.61111V8.5M1.5 2.27778C1.5 2.74927 1.71071 3.20146 2.08579 3.53486C2.46086 3.86825 2.96957 4.05556 3.5 4.05556C4.03043 4.05556 4.53914 3.86825 4.91421 3.53486C5.28929 3.20146 5.5 2.74927 5.5 2.27778C5.5 1.80628 5.28929 1.3541 4.91421 1.0207C4.53914 0.687301 4.03043 0.5 3.5 0.5C2.96957 0.5 2.46086 0.687301 2.08579 1.0207C1.71071 1.3541 1.5 1.80628 1.5 2.27778Z" stroke="#3F3F46" stroke-linecap="round" stroke-linejoin="round"/>
</svg>
