<svg width="9" height="9" viewBox="0 0 9 9" fill="none" xmlns="http://www.w3.org/2000/svg">
<path d="M5.132 5.21599C5.24 5.48799 5.3 5.78799 5.3 6.09999C5.3 6.80799 4.992 7.44799 4.5 7.88399M4.5 7.88399C4.06212 8.28163 3.49148 8.50133 2.9 8.49999C1.576 8.49999 0.5 7.42399 0.5 6.09999C0.5 4.99599 1.252 4.05999 2.268 3.78399M4.5 7.88399C4.93788 8.28163 5.50852 8.50133 6.1 8.49999C7.424 8.49999 8.5 7.42399 8.5 6.09999C8.5 4.99599 7.748 4.05999 6.732 3.78399M2.1 2.9C2.1 3.53652 2.35286 4.14697 2.80294 4.59706C3.25303 5.04715 3.86348 5.30001 4.5 5.30001C5.13652 5.30001 5.74697 5.04715 6.19706 4.59706C6.64714 4.14697 6.9 3.53652 6.9 2.9C6.9 2.26348 6.64714 1.65303 6.19706 1.20294C5.74697 0.752857 5.13652 0.5 4.5 0.5C3.86348 0.5 3.25303 0.752857 2.80294 1.20294C2.35286 1.65303 2.1 2.26348 2.1 2.9Z" stroke="#3F3F46" stroke-linecap="round" stroke-linejoin="round"/>
</svg>
