<svg width="10" height="9" viewBox="0 0 10 9" fill="none" xmlns="http://www.w3.org/2000/svg">
<path d="M8.5 2.5C8.76522 2.5 9.01957 2.39464 9.20711 2.20711C9.39464 2.01957 9.5 1.76522 9.5 1.5C9.5 1.23478 9.39464 0.98043 9.20711 0.792893C9.01957 0.605357 8.76522 0.5 8.5 0.5C8.23478 0.5 7.98043 0.605357 7.79289 0.792893C7.60536 0.98043 7.5 1.23478 7.5 1.5C7.5 1.76522 7.60536 2.01957 7.79289 2.20711C7.98043 2.39464 8.23478 2.5 8.5 2.5ZM8.5 2.5V6.5M5 2.5C5.26522 2.5 5.51957 2.39464 5.70711 2.20711C5.89464 2.01957 6 1.76522 6 1.5C6 1.23478 5.89464 0.98043 5.70711 0.792893C5.51957 0.605357 5.26522 0.5 5 0.5C4.73478 0.5 4.48043 0.605357 4.29289 0.792893C4.10536 0.98043 4 1.23478 4 1.5C4 1.76522 4.10536 2.01957 4.29289 2.20711C4.48043 2.39464 4.73478 2.5 5 2.5ZM5 2.5V6.5M1.5 2.5C1.76522 2.5 2.01957 2.39464 2.20711 2.20711C2.39464 2.01957 2.5 1.76522 2.5 1.5C2.5 1.23478 2.39464 0.98043 2.20711 0.792893C2.01957 0.605357 1.76522 0.5 1.5 0.5C1.23478 0.5 0.980429 0.605357 0.792893 0.792893C0.605357 0.98043 0.5 1.23478 0.5 1.5C0.5 1.76522 0.605357 2.01957 0.792893 2.20711C0.980429 2.39464 1.23478 2.5 1.5 2.5ZM1.5 2.5V3.5C1.5 3.76522 1.60536 4.01957 1.79289 4.20711C1.98043 4.39464 2.23478 4.5 2.5 4.5H8.5M8.5 6.5C8.23478 6.5 7.98043 6.60536 7.79289 6.79289C7.60536 6.98043 7.5 7.23478 7.5 7.5C7.5 7.76522 7.60536 8.01957 7.79289 8.20711C7.98043 8.39464 8.23478 8.5 8.5 8.5C8.76522 8.5 9.01957 8.39464 9.20711 8.20711C9.39464 8.01957 9.5 7.76522 9.5 7.5C9.5 7.23478 9.39464 6.98043 9.20711 6.79289C9.01957 6.60536 8.76522 6.5 8.5 6.5ZM5 6.5C4.73478 6.5 4.48043 6.60536 4.29289 6.79289C4.10536 6.98043 4 7.23478 4 7.5C4 7.76522 4.10536 8.01957 4.29289 8.20711C4.48043 8.39464 4.73478 8.5 5 8.5C5.26522 8.5 5.51957 8.39464 5.70711 8.20711C5.89464 8.01957 6 7.76522 6 7.5C6 7.23478 5.89464 6.98043 5.70711 6.79289C5.51957 6.60536 5.26522 6.5 5 6.5Z" stroke="#3F3F46" stroke-linecap="round" stroke-linejoin="round"/>
</svg>
