<svg xmlns="http://www.w3.org/2000/svg" viewBox="0 0 512 512">
  <circle cx="256" cy="256" r="256" fill="#f0f0f0"/>
  <g fill="#d80027">
    <path d="M244.9 256H512c0-23.1-3.1-45.5-8.8-66.8H244.9z"/>
    <path d="M244.9 122.4h229.6c-15.7-25.5-35.7-48.2-59.2-66.8H244.9z"/>
    <path d="M256 512c60.3 0 115.6-20.8 159.4-55.6H96.6C140.4 491.2 195.7 512 256 512z"/>
    <path d="M37.6 389.6h436.8c13.6-20.8 24.5-43.5 32.1-67.8H5.5c7.6 24.3 18.5 47 32.1 67.8z"/>
  </g>
  <path d="M118.6 40c-13.8 9.3-26.7 19.7-38.4 31.2h76.8z" fill="#0052b4"/>
  <path d="M244.9 256V0h-11.1c-35.5 0-69.6 7.2-100.5 20.3V256z" fill="#0052b4"/>
  <g fill="#f0f0f0">
    <path d="M73.4 163.1L82.6 191h29.4l-23.8 17.3 9.1 27.9-23.9-17.4-23.9 17.4 9.1-27.9-23.8-17.3h29.5z"/>
    <path d="M73.4 67.6L82.6 95.5h29.4l-23.8 17.3 9.1 27.9-23.9-17.4-23.9 17.4 9.1-27.9-23.8-17.3h29.5z"/>
    <path d="M161.5 163.1l9.2 27.9h29.4l-23.9 17.3 9.1 27.9-23.8-17.4-23.9 17.4 9.1-27.9-23.8-17.3h29.4z"/>
    <path d="M161.5 67.6l9.2 27.9h29.4l-23.9 17.3 9.1 27.9-23.8-17.4-23.9 17.4 9.1-27.9-23.8-17.3h29.4z"/>
  </g>
</svg>
