<svg width="24" height="16" viewBox="0 0 24 16" fill="none" xmlns="http://www.w3.org/2000/svg">
<g clip-path="url(#clip0_260_36)">
<path d="M22 0H2C0.89543 0 0 0.89543 0 2V14C0 15.1046 0.89543 16 2 16H22C23.1046 16 24 15.1046 24 14V2C24 0.89543 23.1046 0 22 0Z" fill="#016FD0"/>
<path fill-rule="evenodd" clip-rule="evenodd" d="M13.7642 13.3939V7.6925L23.9117 7.70161V9.27651L22.7388 10.5299L23.9117 11.7948V13.4031H22.0391L21.0439 12.3049L20.0558 13.4072L13.7642 13.3939Z" fill="#FFFFFE"/>
<path fill-rule="evenodd" clip-rule="evenodd" d="M14.4419 12.7688V8.31995H18.2142V9.34483H15.6633V10.0405H18.1534V11.0483H15.6633V11.7317H18.2142V12.7688H14.4419Z" fill="#016FD0"/>
<path fill-rule="evenodd" clip-rule="evenodd" d="M18.1952 12.7687L20.2825 10.5417L18.1951 8.31995H19.8107L21.0862 9.72998L22.3653 8.31995H23.9115V8.35495L21.8686 10.5417L23.9115 12.7056V12.7687H22.3498L21.0516 11.3446L19.7669 12.7687H18.1952Z" fill="#016FD0"/>
<path fill-rule="evenodd" clip-rule="evenodd" d="M14.2374 2.63196H16.6834L17.5426 4.58281V2.63196H20.5624L21.0832 4.09353L21.6057 2.63196H23.9116V8.33335H11.7251L14.2374 2.63196Z" fill="#FFFFFE"/>
<path fill-rule="evenodd" clip-rule="evenodd" d="M14.7006 3.25134L12.7266 7.69651H14.0805L14.4529 6.80635H16.4708L16.843 7.69651H18.2306L16.2648 3.25134H14.7006ZM14.8702 5.80878L15.4622 4.39371L16.0538 5.80878H14.8702Z" fill="#016FD0"/>
<path fill-rule="evenodd" clip-rule="evenodd" d="M18.2122 7.69569V3.25061L20.1153 3.25715L21.0945 5.98988L22.0802 3.25061H23.9118V7.69569L22.7332 7.70612V4.65278L21.6206 7.69569H20.5448L19.4092 4.64235V7.69569H18.2122Z" fill="#016FD0"/>
</g>
<defs>
<clipPath id="clip0_260_36">
<rect width="24" height="16" fill="white"/>
</clipPath>
</defs>
</svg>
