<svg width="12" height="15" viewBox="0 0 12 15" fill="none" xmlns="http://www.w3.org/2000/svg">
<path d="M7 11.6974H10.75M8.875 9.64474V13.75M0.75 13.0658V11.6974C0.75 10.9715 1.01339 10.2754 1.48223 9.76213C1.95107 9.24887 2.58696 8.96053 3.25 8.96053H5.75M2 3.48684C2 4.2127 2.26339 4.90882 2.73223 5.42208C3.20107 5.93534 3.83696 6.22368 4.5 6.22368C5.16304 6.22368 5.79893 5.93534 6.26777 5.42208C6.73661 4.90882 7 4.2127 7 3.48684C7 2.76099 6.73661 2.06486 6.26777 1.5516C5.79893 1.03834 5.16304 0.75 4.5 0.75C3.83696 0.75 3.20107 1.03834 2.73223 1.5516C2.26339 2.06486 2 2.76099 2 3.48684Z" stroke="#303031" stroke-width="1.5" stroke-linecap="round" stroke-linejoin="round"/>
</svg>
