<svg width="18" height="18" viewBox="0 0 18 18" fill="none" xmlns="http://www.w3.org/2000/svg">
<path d="M15.8714 8.07705C16.162 8.07705 16.393 7.84605 16.393 7.55545V6.86247C16.393 3.8074 15.4616 2.87598 12.4065 2.87598H5.47673C2.42166 2.87598 1.49023 3.8074 1.49023 6.86247V7.21269C1.49023 7.50329 1.72123 7.73428 2.01183 7.73428C2.68246 7.73428 3.22641 8.27823 3.22641 8.94886C3.22641 9.61948 2.68246 10.156 2.01183 10.156C1.72123 10.156 1.49023 10.387 1.49023 10.6776V11.0278C1.49023 14.0829 2.42166 15.0143 5.47673 15.0143H12.4065C15.4616 15.0143 16.393 14.0829 16.393 11.0278C16.393 10.7372 16.162 10.5062 15.8714 10.5062C15.2008 10.5062 14.6568 9.96225 14.6568 9.29162C14.6568 8.621 15.2008 8.07705 15.8714 8.07705ZM6.70621 6.61657C7.11603 6.61657 7.45135 6.95189 7.45135 7.36171C7.45135 7.77154 7.12348 8.10685 6.70621 8.10685C6.29638 8.10685 5.96107 7.77154 5.96107 7.36171C5.96107 6.95189 6.28893 6.61657 6.70621 6.61657ZM11.177 11.8325C10.7598 11.8325 10.4244 11.4972 10.4244 11.0874C10.4244 10.6776 10.7598 10.3423 11.1696 10.3423C11.5794 10.3423 11.9147 10.6776 11.9147 11.0874C11.9147 11.4972 11.5943 11.8325 11.177 11.8325ZM11.8477 7.06366L6.83288 12.0784C6.72111 12.1902 6.57953 12.2424 6.43796 12.2424C6.29638 12.2424 6.1548 12.1902 6.04303 12.0784C5.82694 11.8624 5.82694 11.5047 6.04303 11.2886L11.0578 6.27381C11.2739 6.05772 11.6316 6.05772 11.8477 6.27381C12.0638 6.4899 12.0638 6.84757 11.8477 7.06366Z" fill="#6D6D6D"/>
</svg>
