<svg width="18" height="17" viewBox="0 0 18 17" fill="none" xmlns="http://www.w3.org/2000/svg">
<path d="M3.49998 4.26471H2.49999C1.96956 4.26471 1.46085 4.46302 1.08578 4.81603C0.710712 5.16904 0.5 5.64783 0.5 6.14706V14.6176C0.5 15.1169 0.710712 15.5957 1.08578 15.9487C1.46085 16.3017 1.96956 16.5 2.49999 16.5H11.4999C12.0304 16.5 12.5391 16.3017 12.9141 15.9487C13.2892 15.5957 13.4999 15.1169 13.4999 14.6176V13.6765M12.4999 2.38235L15.4999 5.20588M16.8849 3.87422C17.2787 3.50354 17.5 3.00079 17.5 2.47657C17.5 1.95235 17.2787 1.4496 16.8849 1.07892C16.4911 0.708245 15.9569 0.5 15.3999 0.5C14.8429 0.5 14.3088 0.708245 13.9149 1.07892L5.49997 8.97069V11.7942H8.49995L16.8849 3.87422Z" stroke="#141543" stroke-linecap="round" stroke-linejoin="round"/>
</svg>
