<svg width="11" height="12" viewBox="0 0 11 12" fill="none" xmlns="http://www.w3.org/2000/svg">
<path d="M5.5 0.5C6.79954 1.76291 8.49565 2.42046 10.229 2.33333C10.4813 3.27629 10.5586 4.26534 10.456 5.24172C10.3535 6.2181 10.0734 7.16189 9.63224 8.01699C9.1911 8.87209 8.59798 9.62107 7.88811 10.2194C7.17824 10.8177 6.36612 11.2532 5.5 11.5C4.63388 11.2532 3.82176 10.8177 3.11189 10.2194C2.40202 9.62107 1.8089 8.87209 1.36776 8.01699C0.926621 7.16189 0.646472 6.2181 0.54396 5.24172C0.441447 4.26534 0.518664 3.27629 0.77102 2.33333C2.50435 2.42046 4.20046 1.76291 5.5 0.5Z" stroke="#141543" stroke-linecap="round" stroke-linejoin="round"/>
</svg>
