<svg width="17" height="17" viewBox="0 0 17 17" fill="none" xmlns="http://www.w3.org/2000/svg">
<path d="M0.5 15.8284H4.5L15 5.32843C15.2626 5.06578 15.471 4.75398 15.6131 4.41082C15.7553 4.06766 15.8284 3.69986 15.8284 3.32843C15.8284 2.95699 15.7553 2.5892 15.6131 2.24604C15.471 1.90287 15.2626 1.59107 15 1.32843C14.7374 1.06578 14.4256 0.857443 14.0824 0.715302C13.7392 0.57316 13.3714 0.5 13 0.5C12.6286 0.5 12.2608 0.57316 11.9176 0.715302C11.5744 0.857443 11.2626 1.06578 11 1.32843L0.5 11.8284V15.8284Z" fill="#141543"/>
<path d="M10 2.32861L14 6.32861L10 2.32861Z" fill="#141543"/>
<path d="M10 2.32861L14 6.32861M0.5 15.8284H4.5L15 5.32843C15.2626 5.06578 15.471 4.75398 15.6131 4.41082C15.7553 4.06766 15.8284 3.69986 15.8284 3.32843C15.8284 2.95699 15.7553 2.5892 15.6131 2.24604C15.471 1.90287 15.2626 1.59107 15 1.32843C14.7374 1.06578 14.4256 0.857443 14.0824 0.715302C13.7392 0.57316 13.3714 0.5 13 0.5C12.6286 0.5 12.2608 0.57316 11.9176 0.715302C11.5744 0.857443 11.2626 1.06578 11 1.32843L0.5 11.8284V15.8284Z" stroke="white" stroke-linecap="round" stroke-linejoin="round"/>
</svg>
